<svg width="702" height="434" viewBox="0 0 702 434" fill="none" xmlns="http://www.w3.org/2000/svg">
<path d="M105 363.472L103.159 374.339H94.8004L96.6051 363.472H87.7876H81.8521L80.0545 374.339H73.9098L75.7511 363.472H105ZM83.6896 352.364H98.4499L91.3264 395.257C91.1855 396.162 91.2056 396.897 91.3867 397.46C91.5879 398.004 91.9502 398.396 92.4734 398.637C93.0167 398.859 93.6808 398.969 94.4656 398.969C95.0089 398.969 95.6126 398.909 96.2766 398.788C96.9407 398.668 97.4438 398.577 97.7859 398.517L98.2688 409.172C97.484 409.393 96.4276 409.645 95.0994 409.926C93.7914 410.228 92.2621 410.42 90.5114 410.5C86.9697 410.641 84.0418 410.228 81.7276 409.262C79.4336 408.276 77.8137 406.747 76.8679 404.674C75.9422 402.602 75.7611 400.006 76.3246 396.887L83.6896 352.364Z" fill="white"/>
<path d="M108.916 409L116.643 362.636H130.981L129.562 371.088H130.045C131.394 368.029 133.154 365.755 135.328 364.266C137.501 362.757 139.855 362.002 142.391 362.002C143.075 362.002 143.759 362.053 144.444 362.153C145.148 362.234 145.812 362.355 146.436 362.516L144.262 375.374C143.578 375.113 142.683 374.922 141.576 374.801C140.469 374.66 139.463 374.589 138.557 374.589C136.807 374.589 135.177 374.982 133.668 375.767C132.178 376.531 130.911 377.608 129.864 378.996C128.838 380.365 128.164 381.975 127.842 383.826L123.676 409H108.916Z" fill="white"/>
<path d="M159.299 409.785C156.361 409.785 153.825 409.292 151.692 408.306C149.579 407.3 148.03 405.78 147.044 403.748C146.078 401.715 145.846 399.18 146.349 396.141C146.792 393.566 147.607 391.402 148.794 389.652C150.002 387.881 151.481 386.442 153.231 385.335C155.002 384.228 156.974 383.383 159.148 382.8C161.321 382.216 163.595 381.824 165.969 381.622C168.626 381.381 170.779 381.119 172.429 380.838C174.099 380.556 175.347 380.164 176.172 379.661C176.997 379.137 177.5 378.413 177.681 377.487V377.336C177.923 375.787 177.59 374.589 176.685 373.744C175.779 372.899 174.421 372.477 172.61 372.477C170.678 372.477 169.028 372.899 167.66 373.744C166.291 374.589 165.336 375.757 164.792 377.246L151.269 376.763C152.115 373.946 153.564 371.43 155.616 369.217C157.669 366.983 160.275 365.232 163.434 363.964C166.613 362.677 170.286 362.033 174.451 362.033C177.389 362.033 180.046 362.385 182.42 363.089C184.795 363.773 186.797 364.779 188.427 366.108C190.077 367.416 191.254 369.025 191.958 370.937C192.663 372.849 192.814 375.032 192.411 377.487L187.129 409H173.244L174.331 402.54H173.968C172.882 404.11 171.604 405.438 170.135 406.525C168.686 407.612 167.056 408.426 165.245 408.97C163.434 409.513 161.452 409.785 159.299 409.785ZM165.517 400.126C167.066 400.126 168.535 399.804 169.924 399.16C171.312 398.516 172.479 397.63 173.425 396.504C174.391 395.357 175.005 394.028 175.266 392.519L175.961 388.112C175.538 388.334 175.005 388.535 174.361 388.716C173.717 388.897 173.033 389.068 172.308 389.229C171.584 389.37 170.839 389.511 170.075 389.652C169.33 389.772 168.616 389.883 167.931 389.984C166.483 390.205 165.225 390.547 164.158 391.01C163.092 391.473 162.237 392.076 161.593 392.821C160.969 393.545 160.586 394.411 160.446 395.417C160.204 396.926 160.556 398.093 161.502 398.918C162.448 399.723 163.786 400.126 165.517 400.126Z" fill="white"/>
<path d="M216.427 409.664C213.006 409.664 210.038 408.779 207.523 407.008C205.007 405.237 203.206 402.581 202.12 399.039C201.053 395.497 200.953 391.1 201.818 385.848C202.723 380.395 204.333 375.908 206.647 372.386C208.962 368.864 211.658 366.259 214.737 364.568C217.836 362.878 220.995 362.033 224.215 362.033C226.65 362.033 228.662 362.455 230.252 363.3C231.862 364.125 233.119 365.192 234.025 366.5C234.93 367.808 235.554 369.166 235.896 370.575H236.228L240.122 347.182H254.883L244.62 409H230.01L231.248 401.484H230.795C229.93 402.913 228.823 404.251 227.475 405.499C226.127 406.746 224.527 407.752 222.675 408.517C220.844 409.282 218.762 409.664 216.427 409.664ZM223.4 398.164C225.191 398.164 226.811 397.661 228.26 396.654C229.709 395.628 230.926 394.189 231.912 392.338C232.918 390.487 233.622 388.313 234.025 385.818C234.448 383.283 234.468 381.099 234.085 379.268C233.703 377.437 232.948 376.028 231.821 375.042C230.715 374.056 229.256 373.563 227.445 373.563C225.634 373.563 224.014 374.066 222.585 375.072C221.156 376.079 219.969 377.497 219.023 379.328C218.077 381.16 217.393 383.323 216.971 385.818C216.568 388.313 216.528 390.487 216.85 392.338C217.192 394.189 217.906 395.628 218.993 396.654C220.1 397.661 221.569 398.164 223.4 398.164Z" fill="white"/>
<path d="M257.407 409L265.134 362.636H279.895L272.167 409H257.407ZM273.556 357.203C271.463 357.203 269.763 356.509 268.455 355.12C267.147 353.732 266.634 352.072 266.915 350.14C267.197 348.188 268.183 346.528 269.873 345.159C271.564 343.791 273.445 343.107 275.518 343.107C277.611 343.107 279.291 343.791 280.559 345.159C281.847 346.528 282.35 348.188 282.068 350.14C281.827 352.072 280.861 353.732 279.17 355.12C277.5 356.509 275.629 357.203 273.556 357.203Z" fill="white"/>
<path d="M304.22 382.558L299.813 409H285.053L292.78 362.636H306.816L305.428 371.148H305.941C307.39 368.311 309.493 366.087 312.249 364.478C315.006 362.848 318.105 362.033 321.546 362.033C324.786 362.033 327.493 362.757 329.666 364.206C331.839 365.655 333.379 367.687 334.284 370.303C335.19 372.899 335.341 375.948 334.737 379.449L329.787 409H315.026L319.464 382.347C319.906 379.791 319.594 377.789 318.528 376.34C317.481 374.871 315.771 374.137 313.396 374.137C311.847 374.137 310.428 374.479 309.14 375.163C307.873 375.827 306.806 376.783 305.941 378.031C305.096 379.278 304.522 380.787 304.22 382.558Z" fill="white"/>
<path d="M360.949 427.352C356.522 427.352 352.839 426.739 349.901 425.511C346.963 424.284 344.77 422.603 343.321 420.47C341.872 418.337 341.178 415.922 341.238 413.226L355.365 412.441C355.486 413.407 355.838 414.242 356.421 414.946C357.005 415.651 357.84 416.184 358.927 416.546C360.013 416.929 361.362 417.12 362.971 417.12C365.447 417.12 367.6 416.516 369.431 415.309C371.262 414.101 372.389 412.018 372.812 409.06L374.17 400.911H373.657C372.852 402.339 371.765 403.617 370.397 404.744C369.028 405.871 367.409 406.756 365.537 407.4C363.666 408.044 361.593 408.366 359.319 408.366C355.918 408.366 352.95 407.581 350.415 406.012C347.879 404.422 346.048 401.967 344.921 398.647C343.794 395.306 343.663 391.01 344.529 385.758C345.434 380.345 347.044 375.887 349.358 372.386C351.672 368.864 354.369 366.259 357.448 364.568C360.547 362.878 363.716 362.033 366.956 362.033C369.391 362.033 371.403 362.455 372.993 363.3C374.582 364.125 375.83 365.192 376.736 366.5C377.641 367.808 378.285 369.166 378.667 370.575H379.09L380.388 362.636H395.088L387.361 409.181C386.737 413.125 385.217 416.446 382.803 419.142C380.388 421.839 377.299 423.881 373.536 425.27C369.773 426.658 365.577 427.352 360.949 427.352ZM366.141 397.62C367.932 397.62 369.552 397.147 371 396.202C372.449 395.256 373.667 393.898 374.653 392.127C375.639 390.356 376.333 388.233 376.736 385.758C377.138 383.242 377.138 381.079 376.736 379.268C376.353 377.437 375.609 376.028 374.502 375.042C373.395 374.056 371.936 373.563 370.125 373.563C368.294 373.563 366.664 374.066 365.235 375.072C363.827 376.079 362.639 377.497 361.673 379.328C360.728 381.14 360.064 383.283 359.681 385.758C359.279 388.233 359.249 390.356 359.591 392.127C359.953 393.898 360.677 395.256 361.764 396.202C362.871 397.147 364.33 397.62 366.141 397.62Z" fill="white"/>
<path d="M478.781 382.558L474.374 409H459.613L469.876 347.182H484.153L480.229 371.148H480.743C482.232 368.291 484.304 366.057 486.961 364.447C489.617 362.838 492.696 362.033 496.197 362.033C499.417 362.033 502.113 362.757 504.287 364.206C506.46 365.635 507.999 367.657 508.905 370.273C509.81 372.889 509.971 375.948 509.388 379.449L504.437 409H489.677L494.145 382.347C494.547 379.771 494.215 377.759 493.148 376.31C492.082 374.861 490.371 374.137 488.017 374.137C486.468 374.137 485.039 374.479 483.731 375.163C482.443 375.827 481.366 376.783 480.501 378.031C479.636 379.278 479.062 380.787 478.781 382.558Z" fill="white"/>
<path d="M550.194 388.988L554.601 362.636H569.331L561.604 409H547.538L548.957 400.367H548.474C547.045 403.205 544.942 405.458 542.165 407.129C539.388 408.779 536.259 409.604 532.778 409.604C529.618 409.604 526.962 408.879 524.809 407.43C522.656 405.982 521.126 403.959 520.221 401.363C519.335 398.747 519.174 395.689 519.738 392.187L524.688 362.636H539.448L535.011 389.289C534.629 391.805 534.961 393.787 536.007 395.236C537.074 396.685 538.744 397.409 541.018 397.409C542.487 397.409 543.865 397.087 545.153 396.443C546.441 395.779 547.528 394.823 548.413 393.576C549.319 392.308 549.912 390.779 550.194 388.988Z" fill="white"/>
<path d="M574.399 409L584.662 347.182H599.422L595.589 370.575H595.89C596.695 369.166 597.762 367.808 599.09 366.5C600.438 365.192 602.058 364.125 603.95 363.3C605.841 362.455 608.004 362.033 610.439 362.033C613.659 362.033 616.527 362.878 619.042 364.568C621.557 366.259 623.389 368.864 624.536 372.386C625.683 375.908 625.803 380.395 624.898 385.848C624.033 391.1 622.473 395.497 620.219 399.039C617.965 402.581 615.279 405.237 612.16 407.008C609.061 408.779 605.801 409.664 602.38 409.664C600.046 409.664 598.084 409.282 596.494 408.517C594.924 407.752 593.667 406.746 592.721 405.499C591.795 404.251 591.151 402.913 590.789 401.484H590.216L589.008 409H574.399ZM592.721 385.818C592.318 388.313 592.298 390.487 592.661 392.338C593.043 394.189 593.777 395.628 594.864 396.654C595.971 397.661 597.43 398.164 599.241 398.164C601.052 398.164 602.672 397.661 604.101 396.654C605.529 395.628 606.727 394.189 607.693 392.338C608.658 390.487 609.343 388.313 609.745 385.818C610.148 383.323 610.168 381.16 609.805 379.328C609.463 377.497 608.749 376.079 607.662 375.072C606.576 374.066 605.117 373.563 603.286 373.563C601.475 373.563 599.845 374.056 598.396 375.042C596.967 376.028 595.76 377.437 594.773 379.268C593.808 381.099 593.123 383.283 592.721 385.818Z" fill="white"/>
<path d="M475.463 68.318H418.318L506.076 207.236L361.174 434H424.441L534.648 258.309L589.752 335.94H646.896L475.463 68.318Z" fill="#754BF6"/>
<path d="M702 0.9024C683.632 0.221428 646.08 -0.731933 642.815 0.9024L546.893 150.035L581.588 194.979L702 0.9024Z" fill="#754BF6"/>
<path d="M130.184 132.232H167.842L148.709 248.017C146.564 261.017 141.606 272.393 133.837 282.143C126.068 291.893 116.182 299.496 104.181 304.952C92.179 310.349 78.7857 313.048 64.001 313.048C49.2162 313.048 36.7506 310.349 26.6042 304.952C16.4578 299.496 9.12344 291.893 4.60105 282.143C0.0786505 272.393 -1.10993 261.017 1.03531 248.017L20.1685 132.232H57.8262L39.1278 244.796C38.0842 251.586 38.606 257.622 40.6932 262.904C42.8385 268.185 46.3752 272.335 51.3035 275.353C56.2317 278.371 62.3196 279.88 69.567 279.88C76.8724 279.88 83.482 278.371 89.396 275.353C95.3678 272.335 100.267 268.185 104.094 262.904C107.978 257.622 110.442 251.586 111.486 244.796L130.184 132.232Z" fill="white"/>
<path d="M347.803 132.232L318.233 310.523H285.707L227.003 198.308H225.611L206.913 310.523H169.255L198.825 132.232H231.873L290.316 244.361H291.795L310.319 132.232H347.803Z" fill="white"/>
<path d="M416.574 132.232L387.004 310.523H349.347L378.916 132.232H416.574Z" fill="white"/>
</svg>
