<svg width="703" height="434" viewBox="0 0 703 434" fill="none" xmlns="http://www.w3.org/2000/svg">
<path d="M21.9121 339L20.8105 345.562H13.6891L14.7813 339H6.30832L5.22477 345.562H0.138672L1.2168 339H21.9121ZM7.73242 330.375H16.2168L10.5918 364.172C10.4199 365.312 10.4512 366.188 10.6855 366.797C10.9355 367.391 11.334 367.797 11.8809 368.016C12.4434 368.234 13.0762 368.344 13.7793 368.344C14.2949 368.344 14.7793 368.305 15.2324 368.227C15.6855 368.133 16.0449 368.063 16.3105 368.016L16.6855 374.648C16.1699 374.805 15.4746 374.977 14.5996 375.164C13.7402 375.352 12.709 375.461 11.5059 375.492C9.34961 375.539 7.47461 375.211 5.88086 374.508C4.30273 373.789 3.14648 372.688 2.41211 371.203C1.69336 369.703 1.5293 367.828 1.91992 365.578L7.73242 330.375Z" fill="white"/>
<path d="M25.6478 375L31.6478 339H39.8744L38.8666 345H39.2416C40.2259 342.922 41.6166 341.32 43.4134 340.195C45.2259 339.055 47.1634 338.484 49.2259 338.484C49.7103 338.484 50.2337 338.508 50.7962 338.555C51.3587 338.586 51.8431 338.641 52.2494 338.719L50.9369 346.523C50.5775 346.398 50.015 346.289 49.2494 346.195C48.4994 346.086 47.7572 346.031 47.0228 346.031C45.4759 346.031 44.0384 346.367 42.7103 347.039C41.3978 347.695 40.2884 348.609 39.3822 349.781C38.4759 350.953 37.89 352.305 37.6244 353.836L34.1322 375H25.6478Z" fill="white"/>
<path d="M64.1413 375.727C61.8601 375.727 59.8757 375.32 58.1882 374.508C56.5007 373.68 55.2585 372.461 54.4616 370.852C53.6804 369.242 53.4851 367.258 53.8757 364.898C54.2195 362.867 54.8757 361.188 55.8445 359.859C56.8288 358.531 58.032 357.469 59.4538 356.672C60.8913 355.859 62.4538 355.25 64.1413 354.844C65.8445 354.438 67.5788 354.141 69.3445 353.953C71.5007 353.734 73.2429 353.531 74.571 353.344C75.9148 353.156 76.9226 352.875 77.5945 352.5C78.2663 352.109 78.6726 351.516 78.8132 350.719V350.578C79.0945 348.812 78.8132 347.445 77.9695 346.477C77.1257 345.508 75.7195 345.023 73.7507 345.023C71.6882 345.023 69.9538 345.477 68.5476 346.383C67.1413 347.289 66.1179 348.359 65.4773 349.594L57.7898 348.469C58.7585 346.281 60.0866 344.453 61.7741 342.984C63.4616 341.5 65.407 340.391 67.6101 339.656C69.8288 338.906 72.196 338.531 74.7116 338.531C76.4304 338.531 78.1101 338.734 79.7507 339.141C81.407 339.547 82.8679 340.219 84.1335 341.156C85.4148 342.078 86.3523 343.336 86.946 344.93C87.5554 346.523 87.657 348.516 87.2507 350.906L83.2429 375H75.0866L75.9304 370.055H75.6491C74.9773 371.055 74.1023 371.992 73.0241 372.867C71.946 373.727 70.6648 374.422 69.1804 374.953C67.696 375.469 66.0163 375.727 64.1413 375.727ZM67.3523 369.492C69.0554 369.492 70.5866 369.156 71.946 368.484C73.3054 367.797 74.4226 366.891 75.2976 365.766C76.1726 364.641 76.7195 363.414 76.9382 362.086L77.6413 357.844C77.3288 358.063 76.8445 358.266 76.1882 358.453C75.532 358.641 74.7976 358.805 73.9851 358.945C73.1882 359.086 72.3991 359.211 71.6179 359.32C70.8366 359.43 70.1648 359.523 69.6023 359.602C68.3054 359.773 67.1179 360.055 66.0398 360.445C64.9773 360.836 64.0945 361.383 63.3913 362.086C62.7038 362.773 62.2741 363.664 62.1023 364.758C61.8523 366.305 62.2195 367.484 63.2038 368.297C64.1882 369.094 65.571 369.492 67.3523 369.492Z" fill="white"/>
<path d="M107.727 375.633C104.899 375.633 102.484 374.906 100.484 373.453C98.4845 372 97.0626 369.891 96.2188 367.125C95.3907 364.359 95.297 361 95.9376 357.047C96.6095 353.047 97.836 349.672 99.6173 346.922C101.399 344.156 103.524 342.07 105.992 340.664C108.477 339.242 111.102 338.531 113.867 338.531C115.992 338.531 117.672 338.891 118.906 339.609C120.156 340.313 121.094 341.164 121.719 342.164C122.344 343.148 122.805 344.078 123.102 344.953H123.453L126.43 327H134.938L126.969 375H118.625L119.586 369.328H119.07C118.477 370.203 117.688 371.133 116.703 372.117C115.719 373.086 114.492 373.914 113.024 374.602C111.555 375.289 109.789 375.633 107.727 375.633ZM111.102 368.672C112.914 368.672 114.539 368.188 115.977 367.219C117.43 366.234 118.641 364.867 119.609 363.117C120.578 361.367 121.258 359.328 121.649 357C122.039 354.672 122.039 352.648 121.649 350.93C121.258 349.211 120.5 347.875 119.375 346.922C118.25 345.969 116.774 345.492 114.945 345.492C113.07 345.492 111.422 345.984 110 346.969C108.594 347.953 107.438 349.313 106.531 351.047C105.625 352.781 104.984 354.766 104.609 357C104.234 359.25 104.211 361.258 104.539 363.023C104.883 364.773 105.594 366.156 106.672 367.172C107.766 368.172 109.242 368.672 111.102 368.672Z" fill="white"/>
<path d="M138.691 375L144.691 339H153.175L147.175 375H138.691ZM150.175 333.844C148.816 333.844 147.691 333.391 146.8 332.484C145.91 331.578 145.519 330.492 145.628 329.227C145.738 327.961 146.308 326.875 147.339 325.969C148.386 325.063 149.581 324.609 150.925 324.609C152.285 324.609 153.402 325.063 154.277 325.969C155.167 326.875 155.558 327.961 155.449 329.227C155.355 330.492 154.785 331.578 153.738 332.484C152.706 333.391 151.519 333.844 150.175 333.844Z" fill="white"/>
<path d="M170.54 353.906L167.071 375H158.563L164.563 339H172.696L171.665 345.117H172.11C173.235 343.102 174.813 341.5 176.845 340.312C178.876 339.125 181.243 338.531 183.946 338.531C186.399 338.531 188.462 339.063 190.134 340.125C191.805 341.172 192.993 342.711 193.696 344.742C194.399 346.758 194.509 349.203 194.024 352.078L190.18 375H181.696L185.282 353.391C185.688 351 185.384 349.125 184.368 347.766C183.368 346.391 181.759 345.703 179.54 345.703C178.055 345.703 176.688 346.031 175.438 346.688C174.188 347.328 173.134 348.258 172.274 349.477C171.43 350.695 170.852 352.172 170.54 353.906Z" fill="white"/>
<path d="M214.805 389.25C211.742 389.25 209.188 388.836 207.141 388.008C205.094 387.195 203.516 386.102 202.406 384.727C201.297 383.352 200.61 381.828 200.344 380.156L208.313 378.305C208.547 379.008 208.922 379.703 209.438 380.391C209.969 381.094 210.75 381.672 211.781 382.125C212.813 382.594 214.188 382.828 215.906 382.828C218.313 382.828 220.414 382.242 222.211 381.07C224.008 379.898 225.117 377.992 225.539 375.352L226.617 368.531H226.195C225.633 369.406 224.86 370.305 223.875 371.227C222.906 372.148 221.68 372.922 220.195 373.547C218.727 374.172 216.961 374.484 214.899 374.484C212.133 374.484 209.735 373.836 207.703 372.539C205.672 371.227 204.211 369.273 203.32 366.68C202.445 364.07 202.336 360.805 202.992 356.883C203.633 352.93 204.836 349.594 206.602 346.875C208.383 344.141 210.516 342.07 213 340.664C215.485 339.242 218.11 338.531 220.875 338.531C222.985 338.531 224.664 338.891 225.914 339.609C227.164 340.313 228.11 341.164 228.75 342.164C229.391 343.148 229.86 344.078 230.156 344.953H230.602L231.586 339H239.953L233.906 375.586C233.406 378.664 232.258 381.211 230.461 383.227C228.664 385.258 226.406 386.766 223.688 387.75C220.985 388.75 218.024 389.25 214.805 389.25ZM218.274 367.828C220.07 367.828 221.68 367.391 223.102 366.516C224.524 365.641 225.711 364.383 226.664 362.742C227.617 361.102 228.281 359.133 228.656 356.836C229.031 354.57 229.016 352.586 228.61 350.883C228.219 349.18 227.461 347.859 226.336 346.922C225.211 345.969 223.742 345.492 221.93 345.492C220.039 345.492 218.383 345.984 216.961 346.969C215.555 347.953 214.399 349.305 213.492 351.023C212.602 352.727 211.977 354.664 211.617 356.836C211.274 359.039 211.274 360.969 211.617 362.625C211.977 364.266 212.703 365.547 213.797 366.469C214.906 367.375 216.399 367.828 218.274 367.828Z" fill="white"/>
<path d="M276.3 353.906L272.831 375H264.323L272.292 327H280.612L277.612 345.117H278.057C279.198 343.07 280.753 341.461 282.722 340.289C284.706 339.117 287.089 338.531 289.87 338.531C292.339 338.531 294.417 339.055 296.104 340.102C297.792 341.148 298.979 342.68 299.667 344.695C300.37 346.711 300.487 349.172 300.018 352.078L296.175 375H287.667L291.276 353.391C291.667 350.969 291.347 349.086 290.315 347.742C289.3 346.383 287.69 345.703 285.487 345.703C283.972 345.703 282.573 346.031 281.292 346.688C280.011 347.328 278.932 348.258 278.057 349.477C277.198 350.695 276.612 352.172 276.3 353.906Z" fill="white"/>
<path d="M332.869 359.859L336.362 339H344.846L338.846 375H330.619L331.698 368.602H331.322C330.197 370.617 328.588 372.266 326.494 373.547C324.416 374.828 322.026 375.469 319.323 375.469C316.963 375.469 314.971 374.945 313.346 373.898C311.721 372.836 310.565 371.297 309.877 369.281C309.205 367.25 309.104 364.797 309.573 361.922L313.416 339H321.901L318.291 360.609C317.932 362.891 318.26 364.703 319.276 366.047C320.307 367.391 321.838 368.062 323.869 368.062C325.119 368.062 326.377 367.758 327.643 367.148C328.924 366.539 330.041 365.633 330.994 364.43C331.947 363.211 332.572 361.688 332.869 359.859Z" fill="white"/>
<path d="M350.586 375L358.554 327H367.039L364.086 344.953H364.461C365.023 344.078 365.781 343.148 366.734 342.164C367.703 341.164 368.929 340.313 370.414 339.609C371.898 338.891 373.695 338.531 375.804 338.531C378.586 338.531 380.976 339.242 382.976 340.664C384.976 342.07 386.406 344.156 387.265 346.922C388.125 349.672 388.226 353.047 387.57 357.047C386.914 361 385.711 364.359 383.961 367.125C382.211 369.891 380.093 372 377.609 373.453C375.125 374.906 372.468 375.633 369.64 375.633C367.578 375.633 365.922 375.289 364.672 374.602C363.437 373.914 362.492 373.086 361.836 372.117C361.179 371.133 360.703 370.203 360.406 369.328H359.867L358.929 375H350.586ZM361.906 357C361.531 359.328 361.523 361.367 361.882 363.117C362.257 364.867 362.992 366.234 364.086 367.219C365.195 368.188 366.656 368.672 368.468 368.672C370.328 368.672 371.968 368.172 373.39 367.172C374.828 366.156 376.015 364.773 376.953 363.023C377.89 361.258 378.547 359.25 378.922 357C379.281 354.766 379.281 352.781 378.922 351.047C378.578 349.313 377.851 347.953 376.742 346.969C375.648 345.984 374.164 345.492 372.289 345.492C370.461 345.492 368.836 345.969 367.414 346.922C365.992 347.875 364.812 349.211 363.875 350.93C362.937 352.648 362.281 354.672 361.906 357Z" fill="white"/>
<path d="M476.463 68.318H419.318L507.076 207.236L362.174 434H425.441L535.648 258.309L590.752 335.94H647.896L476.463 68.318Z" fill="#754BF6"/>
<path d="M703 0.9024C684.632 0.221428 647.08 -0.731933 643.814 0.9024L547.893 150.035L582.588 194.979L703 0.9024Z" fill="#754BF6"/>
<path d="M131.184 132.232H168.842L149.709 248.017C147.563 261.017 142.606 272.393 134.837 282.143C127.068 291.893 117.182 299.496 105.181 304.952C93.1788 310.349 79.7855 313.048 65.0008 313.048C50.216 313.048 37.7504 310.349 27.604 304.952C17.4576 299.496 10.1232 291.893 5.60085 282.143C1.07845 272.393 -0.110126 261.017 2.03511 248.017L21.1683 132.232H58.826L40.1276 244.796C39.084 251.586 39.6058 257.622 41.693 262.904C43.8383 268.185 47.375 272.335 52.3033 275.353C57.2315 278.371 63.3194 279.88 70.5668 279.88C77.8722 279.88 84.4819 278.371 90.3958 275.353C96.3676 272.335 101.267 268.185 105.094 262.904C108.978 257.622 111.442 251.586 112.486 244.796L131.184 132.232Z" fill="white"/>
<path d="M348.803 132.232L319.233 310.523H286.707L228.003 198.308H226.611L207.913 310.523H170.255L199.825 132.232H232.873L291.316 244.361H292.795L311.319 132.232H348.803Z" fill="white"/>
<path d="M417.574 132.232L388.004 310.523H350.346L379.916 132.232H417.574Z" fill="white"/>
</svg>
