<svg width="702" height="434" viewBox="0 0 702 434" fill="none" xmlns="http://www.w3.org/2000/svg">
<path d="M475.463 68.318H418.318L506.076 207.236L361.174 434H424.441L534.648 258.309L589.752 335.94H646.896L475.463 68.318Z" fill="#754BF6"/>
<path d="M702 0.9024C683.632 0.221428 646.08 -0.731933 642.815 0.9024L546.893 150.035L581.588 194.979L702 0.9024Z" fill="#754BF6"/>
<path d="M130.184 132.232H167.842L148.709 248.017C146.564 261.017 141.606 272.393 133.837 282.143C126.068 291.893 116.182 299.496 104.181 304.952C92.179 310.349 78.7857 313.048 64.001 313.048C49.2162 313.048 36.7506 310.349 26.6042 304.952C16.4578 299.496 9.12344 291.893 4.60105 282.143C0.0786505 272.393 -1.10993 261.017 1.03531 248.017L20.1685 132.232H57.8262L39.1278 244.796C38.0842 251.586 38.606 257.622 40.6932 262.904C42.8385 268.185 46.3752 272.335 51.3035 275.353C56.2317 278.371 62.3196 279.88 69.567 279.88C76.8724 279.88 83.482 278.371 89.396 275.353C95.3678 272.335 100.267 268.185 104.094 262.904C107.978 257.622 110.442 251.586 111.486 244.796L130.184 132.232Z" fill="white"/>
<path d="M347.803 132.232L318.233 310.523H285.707L227.003 198.308H225.611L206.913 310.523H169.255L198.825 132.232H231.873L290.316 244.361H291.795L310.319 132.232H347.803Z" fill="white"/>
<path d="M416.574 132.232L387.004 310.523H349.347L378.916 132.232H416.574Z" fill="white"/>
</svg>
