<svg width="105" height="94" viewBox="0 0 105 94" fill="none" xmlns="http://www.w3.org/2000/svg">
<path d="M104.348 10.5211L95.4416 1.62048C95.2348 1.41225 94.9888 1.24698 94.7178 1.13421C94.4468 1.02144 94.1563 0.963379 93.8628 0.963379C93.5694 0.963379 93.2787 1.02144 93.0078 1.13421C92.7368 1.24698 92.4909 1.41225 92.2841 1.62048C91.862 2.08566 91.6283 2.69126 91.6283 3.31937C91.6283 3.94747 91.862 4.55307 92.2841 5.01825L97.3693 10.3438C97.3693 10.3438 49.5941 10.1436 49.4454 10.1608C46.3622 10.5898 40.482 11.3048 34.2527 14.5024C28.2535 17.7037 23.2373 22.4756 19.741 28.3077C16.2447 34.1399 14.3996 40.8127 14.4032 47.6126C14.4067 54.4124 16.2587 61.0835 19.7611 66.912C23.2635 72.7405 28.2844 77.5072 34.2869 80.7023H7.63082L12.7217 75.5026C13.1427 75.0747 13.3787 74.4984 13.3787 73.8981C13.3787 73.2978 13.1427 72.7215 12.7217 72.2936C12.5141 72.0859 12.2675 71.9211 11.9961 71.8086C11.7247 71.6962 11.4339 71.6383 11.1402 71.6383C10.8464 71.6383 10.5555 71.6962 10.2841 71.8086C10.0127 71.9211 9.76615 72.0859 9.55846 72.2936L0.657932 81.1827C0.449873 81.3891 0.284636 81.6345 0.171938 81.905C0.0592398 82.1755 0.00128174 82.4656 0.00128174 82.7587C0.00128174 83.0517 0.0592398 83.3418 0.171938 83.6123C0.284636 83.8828 0.449873 84.1282 0.657932 84.3346L9.55846 93.2352C9.7655 93.4428 10.0117 93.6073 10.2827 93.7192C10.5537 93.8311 10.8441 93.8883 11.1372 93.8873C11.7308 93.8877 12.3004 93.6533 12.7217 93.2352C13.14 92.7898 13.3728 92.2017 13.3728 91.5907C13.3728 90.9796 13.14 90.3916 12.7217 89.9461L7.63082 84.735H55.9322C61.4121 84.163 65.9883 83.019 69.5463 80.7309H69.4033C75.4158 77.5205 80.4424 72.7358 83.9452 66.8888C87.4481 61.0418 89.2954 54.3525 89.2895 47.5365C89.2836 40.7206 87.4248 34.0345 83.9118 28.1935C80.3989 22.3526 75.3641 17.5766 69.346 14.3766H97.375L92.2898 19.4618C92.0786 19.6681 91.9105 19.9144 91.7951 20.1863C91.6798 20.4581 91.6196 20.7502 91.6181 21.0455C91.6165 21.3408 91.6735 21.6335 91.7859 21.9066C91.8983 22.1797 92.0638 22.4277 92.2728 22.6364C92.4818 22.845 92.7301 23.01 93.0034 23.1219C93.2767 23.2338 93.5695 23.2904 93.8648 23.2883C94.1601 23.2861 94.452 23.2254 94.7237 23.1096C94.9953 22.9938 95.2414 22.8252 95.4473 22.6136L104.354 13.713C104.772 13.2928 105.006 12.7241 105.006 12.1314C105.006 11.5386 104.772 10.9699 104.354 10.5497L104.348 10.5211ZM84.8134 47.4278C84.8134 53.9489 82.8797 60.3236 79.2568 65.7457C75.6339 71.1678 70.4845 75.3938 64.4598 77.8893C58.4351 80.3848 51.8056 81.0377 45.4098 79.7655C39.014 78.4933 33.1391 75.3531 28.528 70.742C23.9169 66.1309 20.7768 60.256 19.5046 53.8602C18.2324 47.4644 18.8853 40.835 21.3808 34.8103C23.8763 28.7856 28.1023 23.6362 33.5244 20.0132C38.9465 16.3903 45.3212 14.4566 51.8423 14.4566C60.584 14.4657 68.965 17.9424 75.1464 24.1237C81.3277 30.3051 84.8044 38.6861 84.8134 47.4278Z" fill="white"/>
</svg>
